<svg width="179" height="179" viewBox="0 0 179 179" fill="none" xmlns="http://www.w3.org/2000/svg">
<rect width="179" height="179" rx="89.5" fill="white"/>
<path d="M74.3215 57.8194C79.7457 49.9834 91.2956 50.0805 96.6086 57.9923C96.7379 58.1847 96.8651 58.3778 96.9934 58.5694C90.8836 63.3269 86.9534 70.7524 86.9534 79.0958C86.9536 93.455 98.5941 105.096 112.953 105.096C116.416 105.096 119.72 104.415 122.741 103.187C123.181 104.101 123.621 105.022 124.059 105.951C129.017 116.474 119.186 127.62 107.969 124.538L105.909 123.973C104.067 123.466 102.356 122.576 100.731 121.571C97.5576 119.611 91.5232 116.575 84.4924 116.506C80.2583 116.464 77.0876 117.632 74.8323 119.004C71.4567 121.058 68.126 123.652 64.2532 124.435L61.5061 124.99C50.564 127.203 41.5692 116.342 46.2835 106.223C54.2376 89.149 62.423 75.0088 74.3215 57.8194Z" fill="black"/>
<ellipse cx="112.453" cy="79.0953" rx="23.5" ry="24" fill="black"/>
</svg>
